<?xml version="1.0" encoding="UTF-8" standalone="no"?>
<!DOCTYPE svg PUBLIC "-//W3C//DTD SVG 1.1//EN" "http://www.w3.org/Graphics/SVG/1.1/DTD/svg11.dtd">
<svg width="100%" height="100%" viewBox="0 0 501 101" version="1.1" xmlns="http://www.w3.org/2000/svg" xmlns:xlink="http://www.w3.org/1999/xlink" xml:space="preserve" xmlns:serif="http://www.serif.com/" style="fill-rule:evenodd;clip-rule:evenodd;stroke-linejoin:round;stroke-miterlimit:2;">
    <g transform="matrix(1,0,0,1,-1486.850858,-1610.270713)">
        <g>
            <g transform="matrix(0.593895,0,0,0.593895,798.703369,976.850719)">
                <path d="M1242.309,1163.267L1304.946,1127.103L1242.309,1090.939C1242.309,1090.939 1218.056,1104.941 1206.517,1111.604C1205.286,1112.314 1203.77,1112.314 1202.539,1111.604C1201.308,1110.893 1200.55,1109.58 1200.55,1108.159L1200.55,1093.235C1200.55,1091.814 1201.308,1090.501 1202.539,1089.791C1209.64,1085.691 1233.701,1071.8 1240.802,1067.7C1242.033,1066.989 1243.549,1066.989 1244.78,1067.7C1256.122,1074.249 1312.523,1106.819 1323.864,1113.368C1325.094,1114.078 1325.852,1115.391 1325.852,1116.812C1325.852,1121.418 1325.852,1131.737 1325.852,1136.33C1325.852,1137.743 1325.103,1139.05 1323.884,1139.763C1318.706,1142.793 1305.104,1150.753 1305.104,1150.753C1305.104,1150.753 1318.583,1158.537 1323.757,1161.524C1324.987,1162.235 1325.745,1163.548 1325.745,1164.968C1325.745,1169.575 1325.745,1179.893 1325.745,1184.487C1325.745,1185.899 1324.996,1187.206 1323.776,1187.92C1320.86,1189.626 1315.268,1192.899 1310.932,1195.436C1309.702,1196.156 1308.181,1196.162 1306.945,1195.453C1305.709,1194.744 1304.946,1193.428 1304.946,1192.003C1304.946,1185.035 1304.946,1175.321 1304.946,1175.321L1283.892,1163.166L1242.416,1187.438L1200.55,1163.267L1179.671,1175.321L1242.202,1211.423C1242.202,1211.423 1266.545,1197.417 1278.106,1190.764C1279.337,1190.056 1280.852,1190.058 1282.081,1190.769C1283.31,1191.48 1284.067,1192.792 1284.067,1194.212C1284.067,1199.162 1284.067,1205.533 1284.067,1208.876C1284.067,1210.289 1283.318,1211.596 1282.098,1212.309C1275.085,1216.414 1251.36,1230.297 1244.304,1234.426C1243.07,1235.148 1241.544,1235.153 1240.306,1234.438C1228.885,1227.844 1172.076,1195.045 1160.69,1188.471C1159.459,1187.761 1158.701,1186.448 1158.701,1185.027C1158.701,1180.42 1158.701,1170.098 1158.701,1165.492C1158.701,1164.071 1159.459,1162.758 1160.69,1162.047C1165.903,1159.037 1179.564,1151.15 1179.564,1151.15C1179.564,1151.15 1165.991,1143.314 1160.797,1140.315C1159.567,1139.605 1158.808,1138.291 1158.808,1136.87C1158.808,1132.264 1158.808,1121.942 1158.808,1117.335C1158.808,1115.914 1159.567,1114.601 1160.797,1113.891C1163.736,1112.194 1169.358,1108.948 1173.705,1106.438C1174.936,1105.728 1176.452,1105.728 1177.683,1106.438C1178.913,1107.149 1179.671,1108.462 1179.671,1109.883L1179.671,1127.103L1242.309,1163.267ZM1240.32,1116.196C1241.551,1115.486 1243.067,1115.486 1244.297,1116.196C1249.513,1119.208 1263.188,1127.103 1263.188,1127.103C1263.188,1127.103 1249.513,1134.998 1244.297,1138.009C1243.067,1138.72 1241.551,1138.72 1240.32,1138.009C1235.104,1134.998 1221.43,1127.103 1221.43,1127.103C1221.43,1127.103 1235.104,1119.208 1240.32,1116.196Z" style="fill:rgb(224,0,109);"/>
            </g>
            <g transform="matrix(1,0,0,1,82.379628,360.802297)">
                <path d="M1543.125,1327.376L1552.458,1327.376C1554.208,1327.376 1555.208,1326.626 1555.625,1324.876L1565.292,1284.626L1574.958,1324.876C1575.375,1326.626 1576.375,1327.376 1578.125,1327.376L1587.375,1327.376C1589.125,1327.376 1590.125,1326.626 1590.542,1324.876L1602.958,1274.209C1603.458,1272.126 1602.458,1270.959 1600.458,1270.959L1595.292,1270.959C1593.542,1270.959 1592.542,1271.876 1592.125,1273.543L1582.542,1315.043L1572.792,1273.543C1572.375,1271.876 1571.375,1270.959 1569.625,1270.959L1561.125,1270.959C1559.375,1270.959 1558.375,1271.709 1557.958,1273.459L1548.125,1314.793L1538.625,1273.543C1538.208,1271.876 1537.208,1270.959 1535.458,1270.959L1530.125,1270.959C1528.125,1270.959 1527.042,1272.126 1527.542,1274.209L1539.958,1324.876C1540.375,1326.626 1541.375,1327.376 1543.125,1327.376Z" style="fill:white;fill-rule:nonzero;"/>
            </g>
            <g transform="matrix(1,0,0,1,82.379628,360.802297)">
                <path d="M1612.625,1282.959C1616.208,1282.959 1618.792,1280.459 1618.792,1276.959C1618.792,1273.626 1616.125,1271.126 1612.625,1271.126C1609.208,1271.126 1606.542,1273.626 1606.542,1276.959C1606.542,1280.459 1609.125,1282.959 1612.625,1282.959ZM1610.375,1327.376L1614.958,1327.376C1616.792,1327.376 1617.875,1326.293 1617.875,1324.459L1617.875,1290.043C1617.875,1288.209 1616.792,1287.126 1614.958,1287.126L1610.375,1287.126C1608.542,1287.126 1607.458,1288.209 1607.458,1290.043L1607.458,1324.459C1607.458,1326.293 1608.542,1327.376 1610.375,1327.376Z" style="fill:white;fill-rule:nonzero;"/>
            </g>
            <g transform="matrix(1,0,0,1,82.379628,360.802297)">
                <path d="M1654.292,1273.876L1654.292,1307.043C1654.292,1314.293 1649.708,1318.293 1643.958,1318.293C1638.042,1318.293 1633.708,1313.876 1633.708,1307.876C1633.708,1301.876 1638.375,1297.043 1645.042,1297.043L1646.958,1297.043C1648.708,1297.043 1649.792,1295.959 1649.208,1293.876L1647.958,1289.376C1647.458,1287.709 1646.625,1287.126 1645.042,1287.126L1643.792,1287.126C1635.958,1287.126 1623.125,1293.043 1623.125,1307.876C1623.125,1320.043 1632.208,1328.376 1644.042,1328.376C1655.958,1328.376 1664.708,1320.126 1664.708,1307.459L1664.708,1273.876C1664.708,1272.043 1663.625,1270.959 1661.792,1270.959L1657.208,1270.959C1655.375,1270.959 1654.292,1272.043 1654.292,1273.876Z" style="fill:white;fill-rule:nonzero;"/>
            </g>
            <g transform="matrix(1,0,0,1,82.379628,360.802297)">
                <path d="M1682.375,1344.293L1690.292,1344.293C1701.792,1344.293 1710.958,1336.959 1710.958,1324.209L1710.958,1307.043C1710.958,1294.376 1702.208,1286.126 1690.292,1286.126C1678.458,1286.126 1669.375,1294.459 1669.375,1306.626C1669.375,1321.459 1682.208,1327.376 1690.042,1327.376L1691.292,1327.376C1692.875,1327.376 1693.708,1326.793 1694.208,1325.126L1695.458,1320.626C1696.042,1318.626 1695.125,1317.459 1693.208,1317.459L1691.292,1317.459C1684.625,1317.459 1679.958,1312.626 1679.958,1306.626C1679.958,1300.626 1684.292,1296.209 1690.208,1296.209C1695.958,1296.209 1700.542,1300.209 1700.542,1307.459L1700.542,1324.209C1700.542,1330.876 1695.875,1334.293 1690.125,1334.293L1680.542,1334.293C1678.458,1334.293 1677.458,1335.459 1678.042,1337.543L1679.208,1341.876C1679.708,1343.459 1680.708,1344.293 1682.375,1344.293Z" style="fill:white;fill-rule:nonzero;"/>
            </g>
            <g transform="matrix(1,0,0,1,82.379628,360.802297)">
                <path d="M1738.375,1327.376L1750.042,1327.376C1751.875,1327.376 1752.958,1326.543 1753.458,1324.793L1754.625,1320.709C1755.208,1318.626 1754.208,1317.459 1752.125,1317.459L1739.458,1317.459C1730.708,1317.459 1726.292,1312.293 1726.292,1306.376C1726.292,1300.709 1730.292,1296.209 1736.125,1296.209C1741.125,1296.209 1744.875,1299.959 1744.875,1304.959C1744.875,1306.626 1744.458,1308.209 1743.625,1309.876C1742.792,1311.626 1743.542,1312.793 1745.708,1312.793L1750.542,1312.793C1752.125,1312.793 1753.292,1312.209 1753.875,1310.793C1754.958,1308.543 1755.625,1306.043 1755.625,1303.626C1755.625,1294.543 1747.958,1286.126 1736.125,1286.209C1724.208,1286.209 1715.708,1295.126 1715.708,1306.543C1715.708,1318.459 1725.125,1327.376 1738.375,1327.376Z" style="fill:white;fill-rule:nonzero;"/>
            </g>
            <g transform="matrix(1,0,0,1,82.379628,360.802297)">
                <path d="M1776.292,1327.376L1778.542,1327.376C1780.208,1327.376 1781.292,1326.543 1781.792,1324.876L1783.042,1320.709C1783.625,1318.626 1782.708,1317.459 1780.625,1317.459L1777.958,1317.459C1773.375,1317.459 1771.292,1315.126 1771.292,1310.626L1771.292,1297.043L1779.792,1297.043C1781.625,1297.043 1782.708,1295.959 1782.708,1294.126L1782.708,1290.043C1782.708,1288.209 1781.625,1287.126 1779.792,1287.126L1771.292,1287.126L1771.292,1281.459C1771.292,1279.626 1770.208,1278.543 1768.375,1278.543L1763.792,1278.543C1761.958,1278.543 1760.875,1279.626 1760.875,1281.459L1760.875,1312.043C1760.875,1321.293 1766.042,1327.376 1776.292,1327.376Z" style="fill:white;fill-rule:nonzero;"/>
            </g>
            <g transform="matrix(1,0,0,1,82.379628,360.802297)">
                <path d="M1793.458,1282.959C1797.042,1282.959 1799.625,1280.459 1799.625,1276.959C1799.625,1273.626 1796.958,1271.126 1793.458,1271.126C1790.042,1271.126 1787.375,1273.626 1787.375,1276.959C1787.375,1280.459 1789.958,1282.959 1793.458,1282.959ZM1791.208,1327.376L1795.792,1327.376C1797.625,1327.376 1798.708,1326.293 1798.708,1324.459L1798.708,1290.043C1798.708,1288.209 1797.625,1287.126 1795.792,1287.126L1791.208,1287.126C1789.375,1287.126 1788.292,1288.209 1788.292,1290.043L1788.292,1324.459C1788.292,1326.293 1789.375,1327.376 1791.208,1327.376Z" style="fill:white;fill-rule:nonzero;"/>
            </g>
            <g transform="matrix(1,0,0,1,82.379628,360.802297)">
                <path d="M1806.792,1327.376L1832.542,1327.376C1834.125,1327.376 1835.292,1326.626 1835.708,1324.959L1836.958,1320.709C1837.542,1318.626 1836.542,1317.459 1834.458,1317.459L1820.042,1317.459L1835.792,1290.626C1836.958,1288.626 1836.125,1287.126 1833.792,1287.126L1807.625,1287.126C1805.792,1287.126 1804.708,1288.209 1804.708,1290.043L1804.708,1294.126C1804.708,1295.959 1805.792,1297.043 1807.625,1297.043L1820.625,1297.043L1804.792,1323.876C1803.625,1325.876 1804.458,1327.376 1806.792,1327.376Z" style="fill:white;fill-rule:nonzero;"/>
            </g>
            <g transform="matrix(1,0,0,1,82.379628,360.802297)">
                <path d="M1861.875,1327.376L1873.542,1327.376C1875.375,1327.376 1876.458,1326.543 1876.958,1324.793L1878.125,1320.709C1878.708,1318.626 1877.708,1317.459 1875.625,1317.459L1862.958,1317.459C1854.208,1317.459 1849.792,1312.293 1849.792,1306.376C1849.792,1300.709 1853.792,1296.209 1859.625,1296.209C1864.625,1296.209 1868.375,1299.959 1868.375,1304.959C1868.375,1306.626 1867.958,1308.209 1867.125,1309.876C1866.292,1311.626 1867.042,1312.793 1869.208,1312.793L1874.042,1312.793C1875.625,1312.793 1876.792,1312.209 1877.375,1310.793C1878.458,1308.543 1879.125,1306.043 1879.125,1303.626C1879.125,1294.543 1871.458,1286.126 1859.625,1286.209C1847.708,1286.209 1839.208,1295.126 1839.208,1306.543C1839.208,1318.459 1848.625,1327.376 1861.875,1327.376Z" style="fill:white;fill-rule:nonzero;"/>
            </g>
            <g transform="matrix(1,0,0,1,82.379628,360.802297)">
                <path d="M1884.375,1302.293L1884.375,1324.459C1884.375,1326.293 1885.458,1327.376 1887.292,1327.376L1891.875,1327.376C1893.708,1327.376 1894.792,1326.293 1894.792,1324.459L1894.792,1303.043C1894.792,1299.043 1896.958,1297.043 1900.542,1297.043L1902.125,1297.043C1903.958,1297.043 1905.042,1295.959 1905.042,1294.126L1905.042,1290.043C1905.042,1288.209 1903.958,1287.126 1902.125,1287.126L1899.375,1287.126C1889.542,1287.126 1884.375,1293.209 1884.375,1302.293Z" style="fill:white;fill-rule:nonzero;"/>
            </g>
        </g>
    </g>
</svg>
