<?xml version="1.0" encoding="UTF-8"?><svg id="Layer_2" xmlns="http://www.w3.org/2000/svg" viewBox="0 0 156.79 82.21"><g id="Layer_1-2"><path d="M147.64,14.63l-23.36-12.55c-2.58-1.38-5.4-2.08-8.23-2.08-2.53,0-5.05.59-7.41,1.7l3.39,1.82c11.01,5.92,17.85,17.36,17.85,29.86v15.47c0,12.5-6.84,23.94-17.85,29.86l-3.39,1.82c4.98,2.35,10.75,2.25,15.63-.38l23.36-12.55c5.65-3.03,9.15-8.9,9.15-15.31v-22.35c0-6.41-3.51-12.27-9.15-15.31Z" fill="#db2777"/><path d="M119.13,48.85v-15.47c0-8.53-4.67-16.34-12.18-20.38l-17.6-9.46c-3.43-1.84-7.19-2.76-10.95-2.76-2.37,0-4.72.41-7.01,1.14l2.99,1.61c11.01,5.92,17.85,17.36,17.85,29.86v15.47c0,12.5-6.84,23.94-17.85,29.86l-2.99,1.61c5.91,1.89,12.37,1.38,17.96-1.63l17.6-9.46c7.52-4.04,12.18-11.85,12.18-20.38Z" fill="#db2777"/><path d="M69.29,13l-9.72-5.22-7.88-4.23c-3.43-1.84-7.19-2.76-10.95-2.76s-7.52.92-10.95,2.76L12.18,13C4.67,17.04,0,24.85,0,33.38v15.47c0,8.53,4.67,16.34,12.18,20.38l17.6,9.46c6.86,3.69,15.05,3.69,21.9,0l7.88-4.23,9.72-5.22c7.52-4.04,12.18-11.85,12.18-20.38v-15.47c0-8.53-4.67-16.34-12.18-20.38Z" fill="#db2777"/><path d="M50.09,38h-6.24v-6.24c0-1.71-1.39-3.1-3.1-3.1h-.02c-1.71,0-3.1,1.39-3.1,3.1v6.24h-6.24c-1.71,0-3.1,1.39-3.1,3.1v.02c0,1.71,1.39,3.1,3.1,3.1h6.24v6.24c0,1.71,1.39,3.1,3.1,3.1h.02c1.71,0,3.1-1.39,3.1-3.1v-6.24h6.24c1.71,0,3.1-1.39,3.1-3.1v-.02c0-1.71-1.39-3.1-3.1-3.1Z" fill="#fff"/></g></svg>