<?xml version="1.0" encoding="UTF-8"?><svg id="Layer_2" xmlns="http://www.w3.org/2000/svg" viewBox="0 0 770.17 103.45"><g id="Layer_1-2"><path d="M290.27,20.57c7.33,0,11.94-4.11,11.94-10.44s-4.62-10.13-11.94-10.13-11.94,4.11-11.94,10.34,4.62,10.23,11.94,10.23Z" fill="#fff"/><path d="M556.15,20.57c7.33,0,11.94-4.11,11.94-10.44s-4.61-10.13-11.94-10.13-11.94,4.11-11.94,10.34,4.61,10.23,11.94,10.23Z" fill="#fff"/><path d="M760.43,60.81c-3.11,3.81-6.42,5.72-9.33,5.72s-4.92-2.01-4.92-5.82v-25.69l-2.01-1.91c-8.63.1-18.36-.4-24.28-1.51-2.71-8.63-8.63-13.04-14.85-13.04-5.52,0-10.74,3.51-10.74,10.94,0,6.82,4.52,11.54,11.34,14.45-1.6,11.44-10.23,23.18-27.59,23.18-6.62,0-12.34-1.71-15.65-5.92.7.1,1.51.1,2.21.1,13.04,0,26.19-6.02,26.19-17.96,0-9.43-8.43-18.26-22.58-18.26-17.26,0-28.4,11.34-28.4,27.89,0,4.74.88,8.86,2.45,12.39-1.41.72-3.01,1.18-4.85,1.26-3.01-3.71-8.03-6.92-15.75-9.33l9.53-21.87-1.91-2.61c-10.94.2-23.88-.4-30.4-1.71-2.71-8.53-8.53-12.74-14.45-12.74-5.52,0-10.74,3.41-10.74,10.84,0,6.92,4.52,11.54,11.44,14.55-.8,9.85-4.3,18.98-11.64,22.17-1,.39-1.97.61-2.9.61-2.81,0-4.92-2.01-4.92-5.82V26.39h-19.06v36.85c-2.52,2.32-5.66,3.59-8.62,3.59-4.11,0-7.93-2.21-7.93-7.73v-18.36h9.33v-14.35h-9.33v-11.84h-19.06v11.84h-5.52v14.35h5.52v19.08c-5.53,4.01-14.6,7.01-22.57,7.01-5.92,0-11.34-1.61-14.65-5.62.7.1,1.3.1,2.01.1,13.15,0,26.29-6.02,26.29-17.96,0-9.43-8.23-18.26-22.98-18.26-16.56,0-27.99,11.04-27.99,27.69,0,3.96.65,7.5,1.82,10.65-2.12,2.02-4.8,3.4-8.44,3.4-1,0-2.11-.1-3.31-.3V26.39h-19.06v3.61c-3.81-3.11-9.43-4.92-15.65-4.92-14.65,0-25.79,10.64-25.79,25.69,0,4.32.93,8.24,2.57,11.64-2.69,2.73-5.5,4.12-7.88,4.12-2.91,0-4.92-2.01-4.92-5.82V6.02h-19.06v23.78c-3.71-3.01-8.93-4.72-14.75-4.72-15.45,0-26.09,11.34-26.09,28.7,0,3.4.43,6.56,1.22,9.46-2.4,2.19-4.83,3.28-7.04,3.28-2.81,0-4.92-2.01-4.92-5.82V26.39h-19.07v14.12c-1.86,1.15-3.78,1.93-5.61,2.14-1-13.25-6.92-17.56-12.84-17.56-6.22,0-11.64,4.62-11.64,12.84,0,5.32,2.41,9.83,6.02,13.24-.5,8.23-3.81,15.25-10.44,15.25-4.61,0-5.92-3.51-5.92-7.93V26.39h-19.07v21.97c0,9.33-2.71,18.06-9.83,18.06-4.72,0-6.12-3.51-6.12-7.93V26.39h-19.07v37.23c0,12.44,8.23,18.86,22.18,18.86,8.33,0,14.05-2.41,17.96-6.72,3.31,4.52,8.93,6.72,17.16,6.72,17.26,0,27.39-9.93,30.6-24.48h.8c1.94,0,3.89-.22,5.81-.66v7.88c0,11.64,8.73,17.26,19.07,17.26,6.6,0,13.54-2.41,19.01-6.9,4.5,4.39,10.55,6.9,17.51,6.9,7.63,0,13.65-2.91,17.56-7.83,3.31,5.22,9.53,7.83,16.46,7.83,8.07,0,16.54-3.53,22.25-9.99,3.74,2.15,8.15,3.37,12.97,3.37,6.72,0,12.44-2.31,16.56-6.32v7.73c-1.91-.4-3.81-.6-5.82-.6-9.33,0-18.56,4.41-18.56,13.35,0,9.43,10.34,13.45,20.67,13.45,12.24,0,22.78-5.62,22.78-18.56v-2.51c.5.1,1,.1,1.51.1,6.47-.32,13.24-3,18.42-7.78,6.47,5.22,15.41,7.78,24.82,7.78,9.96,0,20.44-2.75,28.87-7.92,4.23,5.58,11.47,7.92,18.89,7.92,6.4,0,12.68-1.77,17.72-5.07,3.53,3.39,8.66,5.07,14.29,5.07,1.32,0,2.66-.11,4-.3,19.17-2.11,29.06-17.5,30.62-34.72,3.01.3,6.22.5,9.43.6l-7.02,18.06c13.55,1.61,18.56,8.13,19.06,13.85-5.82-3.21-11.84-4.82-17.26-4.82-9.13,0-16.16,4.72-16.16,13.24,0,10.24,9.93,15.05,21.17,15.05,14.45,0,29.3-7.83,31.41-21.98,3.77-1.02,7.45-2.8,10.67-5.27,6.51,4.29,15.18,6.27,24.64,6.27,27.8,0,42.44-16.66,44.75-34.72,2.01.3,4.11.4,6.12.5v16.96c0,11.64,8.73,17.26,19.06,17.26,8.83,0,18.26-4.32,23.98-12.14l-9.73-9.53ZM351.38,61.31c-2.21,3.21-5.92,4.92-10.34,4.92-6.82,0-10.94-4.42-10.94-12.34s4.11-12.54,11.14-12.54c4.11,0,7.83,1.71,10.13,4.32v15.65ZM415.09,91.61c-2.51,0-5.02-1-5.02-3.21s2.81-3.51,6.62-3.51c1.71,0,3.51.2,5.42.7-.3,4.11-3.51,6.02-7.02,6.02ZM422.11,55.99c-2.41,3.01-6.32,4.72-10.74,4.72-6.82,0-11.04-4.01-11.04-10.13s4.31-10.34,11.14-10.34c4.52,0,8.33,1.71,10.64,4.82v10.94ZM470.67,50.97c.2-7.22,4.01-10.03,7.73-10.03,3.01,0,5.22,1.81,5.22,4.21,0,3.81-5.32,5.92-11.24,5.92-.6,0-1.1,0-1.71-.1ZM608.42,92.01c-3.41,0-6.62-1-6.62-3.21,0-1.81,2.01-2.81,4.72-2.81,3.01,0,7.02,1.2,10.34,3.71-2.31,1.51-5.22,2.31-8.43,2.31ZM659.39,50.97c.2-7.32,4.01-10.03,7.73-10.03,3.11,0,5.22,1.91,5.22,4.21,0,3.91-5.32,5.92-11.04,5.92-.6,0-1.3,0-1.91-.1Z" fill="#fff"/><path d="M147.64,25.24l-23.36-12.55c-2.58-1.38-5.4-2.08-8.23-2.08-2.53,0-5.05.59-7.41,1.7l3.39,1.82c11.01,5.92,17.85,17.36,17.85,29.86v15.47c0,12.5-6.84,23.94-17.85,29.86l-3.39,1.82c4.98,2.35,10.75,2.25,15.63-.38l23.36-12.55c5.65-3.03,9.15-8.9,9.15-15.31v-22.35c0-6.41-3.51-12.27-9.15-15.31Z" fill="#db2777"/><path d="M119.13,59.46v-15.47c0-8.53-4.67-16.34-12.18-20.38l-17.6-9.46c-3.43-1.84-7.19-2.76-10.95-2.76-2.37,0-4.72.41-7.01,1.14l2.99,1.61c11.01,5.92,17.85,17.36,17.85,29.86v15.47c0,12.5-6.84,23.94-17.85,29.86l-2.99,1.61c5.91,1.89,12.37,1.38,17.96-1.63l17.6-9.46c7.52-4.04,12.18-11.85,12.18-20.38Z" fill="#db2777"/><path d="M69.29,23.61l-9.72-5.22-7.88-4.23c-3.43-1.84-7.19-2.76-10.95-2.76s-7.52.92-10.95,2.76l-17.6,9.46C4.67,27.65,0,35.46,0,43.99v15.47c0,8.53,4.67,16.34,12.18,20.38l17.6,9.46c6.86,3.69,15.05,3.69,21.9,0l7.88-4.23,9.72-5.22c7.52-4.04,12.18-11.85,12.18-20.38v-15.47c0-8.53-4.67-16.34-12.18-20.38Z" fill="#db2777"/><path d="M50.09,48.61h-6.24v-6.24c0-1.71-1.39-3.1-3.1-3.1h-.02c-1.71,0-3.1,1.39-3.1,3.1v6.24h-6.24c-1.71,0-3.1,1.39-3.1,3.1v.02c0,1.71,1.39,3.1,3.1,3.1h6.24v6.24c0,1.71,1.39,3.1,3.1,3.1h.02c1.71,0,3.1-1.39,3.1-3.1v-6.24h6.24c1.71,0,3.1-1.39,3.1-3.1v-.02c0-1.71-1.39-3.1-3.1-3.1Z" fill="#fff"/></g></svg>