<?xml version="1.0" encoding="UTF-8" standalone="no"?>
<!DOCTYPE svg PUBLIC "-//W3C//DTD SVG 1.1//EN" "http://www.w3.org/Graphics/SVG/1.1/DTD/svg11.dtd">
<svg width="100%" height="100%" viewBox="0 0 100 101" version="1.1" xmlns="http://www.w3.org/2000/svg" xmlns:xlink="http://www.w3.org/1999/xlink" xml:space="preserve" xmlns:serif="http://www.serif.com/" style="fill-rule:evenodd;clip-rule:evenodd;stroke-linejoin:round;stroke-miterlimit:2;">
    <g transform="matrix(1,0,0,1,-1584.842869,-1847.628979)">
        <g transform="matrix(0.593895,0,0,0.593895,896.69538,1214.208985)">
            <path d="M1242.309,1163.267L1304.946,1127.103L1242.309,1090.939C1242.309,1090.939 1218.056,1104.941 1206.517,1111.604C1205.286,1112.314 1203.77,1112.314 1202.539,1111.604C1201.308,1110.893 1200.55,1109.58 1200.55,1108.159L1200.55,1093.235C1200.55,1091.814 1201.308,1090.501 1202.539,1089.791C1209.64,1085.691 1233.701,1071.8 1240.802,1067.7C1242.033,1066.989 1243.549,1066.989 1244.78,1067.7C1256.122,1074.249 1312.523,1106.819 1323.864,1113.368C1325.094,1114.078 1325.852,1115.391 1325.852,1116.812C1325.852,1121.418 1325.852,1131.737 1325.852,1136.33C1325.852,1137.743 1325.103,1139.05 1323.884,1139.763C1318.706,1142.793 1305.104,1150.753 1305.104,1150.753C1305.104,1150.753 1318.583,1158.537 1323.757,1161.524C1324.987,1162.235 1325.745,1163.548 1325.745,1164.968C1325.745,1169.575 1325.745,1179.893 1325.745,1184.487C1325.745,1185.899 1324.996,1187.206 1323.776,1187.92C1320.86,1189.626 1315.268,1192.899 1310.932,1195.436C1309.702,1196.156 1308.181,1196.162 1306.945,1195.453C1305.709,1194.744 1304.946,1193.428 1304.946,1192.003C1304.946,1185.035 1304.946,1175.321 1304.946,1175.321L1283.892,1163.166L1242.416,1187.438L1200.55,1163.267L1179.671,1175.321L1242.202,1211.423C1242.202,1211.423 1266.545,1197.417 1278.106,1190.764C1279.337,1190.056 1280.852,1190.058 1282.081,1190.769C1283.31,1191.48 1284.067,1192.792 1284.067,1194.212C1284.067,1199.162 1284.067,1205.533 1284.067,1208.876C1284.067,1210.289 1283.318,1211.596 1282.098,1212.309C1275.085,1216.414 1251.36,1230.297 1244.304,1234.426C1243.07,1235.148 1241.544,1235.153 1240.306,1234.438C1228.885,1227.844 1172.076,1195.045 1160.69,1188.471C1159.459,1187.761 1158.701,1186.448 1158.701,1185.027C1158.701,1180.42 1158.701,1170.098 1158.701,1165.492C1158.701,1164.071 1159.459,1162.758 1160.69,1162.047C1165.903,1159.037 1179.564,1151.15 1179.564,1151.15C1179.564,1151.15 1165.991,1143.314 1160.797,1140.315C1159.567,1139.605 1158.808,1138.291 1158.808,1136.87C1158.808,1132.264 1158.808,1121.942 1158.808,1117.335C1158.808,1115.914 1159.567,1114.601 1160.797,1113.891C1163.736,1112.194 1169.358,1108.948 1173.705,1106.438C1174.936,1105.728 1176.452,1105.728 1177.683,1106.438C1178.913,1107.149 1179.671,1108.462 1179.671,1109.883L1179.671,1127.103L1242.309,1163.267ZM1240.32,1116.196C1241.551,1115.486 1243.067,1115.486 1244.297,1116.196C1249.513,1119.208 1263.188,1127.103 1263.188,1127.103C1263.188,1127.103 1249.513,1134.998 1244.297,1138.009C1243.067,1138.72 1241.551,1138.72 1240.32,1138.009C1235.104,1134.998 1221.43,1127.103 1221.43,1127.103C1221.43,1127.103 1235.104,1119.208 1240.32,1116.196Z" style="fill:rgb(224,0,109);"/>
        </g>
    </g>
</svg>
